<svg xmlns="http://www.w3.org/2000/svg" viewBox="0 0 512 512">
  <rect width="512" height="512" rx="90" fill="#2563eb"/>
  <!-- Car body -->
  <path d="M108 304 c0-14 6-22 16-22 l26 0 l28-58 c7-15 22-24 38-24 l80 0 c16 0 31 9 38 24 l28 58 l26 0 c10 0 16 8 16 22 l0 22 c0 10-8 16-16 16 l-8 0 c-4 26-28 44-54 44 c-26 0-50-18-54-44 l-48 0 c-4 26-28 44-54 44 c-26 0-50-18-54-44 l-8 0 c-8 0-16-6-16-16 z"
        fill="white"/>
  <!-- Windows -->
  <path d="M190 224 l-20 42 l82 0 l0-42 z" fill="#93c5fd"/>
  <path d="M264 224 l0 42 l82 0 l-20-42 z" fill="#93c5fd"/>
  <!-- Front wheel -->
  <circle cx="196" cy="352" r="26" fill="#1e3a8a"/>
  <circle cx="196" cy="352" r="12" fill="#93c5fd"/>
  <!-- Rear wheel -->
  <circle cx="316" cy="352" r="26" fill="#1e3a8a"/>
  <circle cx="316" cy="352" r="12" fill="#93c5fd"/>
</svg>
